<svg xmlns="http://www.w3.org/2000/svg" width="1600" height="1600" viewBox="0 0 1600 1600" version="1.1"><path d="M 322.898 522.889 C 318.718 523.225, 314.668 524.022, 313.898 524.661 C 313.129 525.299, 310.700 526.143, 308.500 526.537 C 306.300 526.931, 303.825 527.836, 303 528.549 C 302.175 529.261, 300.262 530.153, 298.750 530.530 C 297.238 530.908, 296 531.628, 296 532.130 C 296 532.632, 294.769 533.596, 293.264 534.271 C 291.759 534.947, 289.696 536.175, 288.680 537 C 286.226 538.993, 274.146 551.089, 272.667 553.034 C 267.845 559.377, 262.816 567.670, 262.335 570.073 C 262.018 571.658, 261.138 573.470, 260.379 574.100 C 259.621 574.730, 259 575.984, 259 576.887 C 259 577.791, 258.168 580.098, 257.151 582.015 C 256.134 583.932, 255.046 588.047, 254.732 591.161 C 254.419 594.274, 253.494 597.874, 252.676 599.161 C 251.858 600.447, 250.668 605.527, 250.031 610.448 C 249.394 615.370, 248.564 619.870, 248.186 620.448 C 247.809 621.027, 247.275 647.150, 247 678.500 C 246.559 728.728, 246.306 735.856, 244.866 738.500 C 243.968 740.150, 242.903 744.875, 242.500 749 C 242.097 753.125, 241.145 757.715, 240.384 759.200 C 239.623 760.686, 239 762.762, 239 763.815 C 239 764.869, 238.159 766.803, 237.130 768.115 C 236.102 769.427, 234.931 772.008, 234.528 773.852 C 234.126 775.695, 233.055 778.005, 232.148 778.985 C 231.242 779.965, 228.506 783.069, 226.069 785.884 C 223.632 788.698, 221.193 791, 220.648 791 C 220.103 791, 218.947 791.637, 218.079 792.415 C 217.210 793.193, 214.925 794.227, 213 794.713 C 210.919 795.239, 209.100 796.489, 208.513 797.798 C 207.619 799.791, 206.795 800, 199.822 800 C 195.585 800, 191.840 800.450, 191.500 801 C 191.155 801.557, 186.511 802, 181.006 802 C 175.574 802, 169.976 802.439, 168.565 802.975 L 166 803.950 166 842 L 166 880.050 168.565 881.025 C 169.976 881.561, 175.572 882, 181 882 C 186.428 882, 192.137 882.491, 193.685 883.092 C 195.233 883.693, 199.134 884.565, 202.353 885.031 C 205.573 885.496, 208.948 886.527, 209.853 887.320 C 210.759 888.114, 212.616 889.105, 213.981 889.522 C 220.841 891.621, 233.369 904.596, 234.632 910.910 C 234.967 912.585, 235.850 914.460, 236.594 915.078 C 237.338 915.696, 238.234 917.843, 238.586 919.850 C 238.937 921.858, 239.786 924.400, 240.471 925.500 C 241.157 926.600, 242.055 931.100, 242.466 935.500 C 242.877 939.900, 243.953 944.850, 244.856 946.500 C 246.310 949.153, 246.558 956.153, 247 1007 C 247.275 1038.625, 247.820 1064.990, 248.210 1065.590 C 248.601 1066.189, 249.431 1070.884, 250.056 1076.022 C 250.681 1081.159, 251.822 1086.325, 252.592 1087.501 C 253.363 1088.676, 254.280 1092.532, 254.630 1096.069 C 254.981 1099.606, 255.822 1103.175, 256.500 1104 C 257.177 1104.825, 258.052 1106.850, 258.444 1108.500 C 258.835 1110.150, 259.735 1112.175, 260.444 1113 C 261.152 1113.825, 262.022 1115.726, 262.378 1117.224 C 263.600 1122.369, 272.826 1135.574, 280.648 1143.371 C 287.742 1150.443, 289.587 1152.002, 293.014 1153.817 C 298.285 1156.609, 302.026 1158.775, 303.238 1159.737 C 303.932 1160.288, 306.253 1161.056, 308.396 1161.442 C 310.539 1161.829, 313.428 1162.890, 314.816 1163.799 C 317.045 1165.259, 321.568 1165.456, 353.420 1165.477 C 373.264 1165.489, 390.288 1165.177, 391.250 1164.781 C 392.871 1164.116, 393 1161.409, 393 1128.090 C 393 1100.407, 392.712 1091.933, 391.750 1091.316 C 391.063 1090.875, 382.850 1090.286, 373.500 1090.007 C 364.150 1089.728, 355.825 1089.067, 355.001 1088.537 C 354.177 1088.008, 351.026 1087.282, 347.999 1086.925 C 342.495 1086.276, 338.223 1084.028, 332.836 1078.944 C 330.026 1076.292, 325 1067.606, 325 1065.401 C 325 1064.685, 324.294 1063.704, 323.430 1063.221 C 322.315 1062.597, 321.626 1059.906, 321.050 1053.921 C 320.604 1049.290, 319.652 1044.150, 318.935 1042.500 C 317.949 1040.230, 317.546 1028.911, 317.282 996 C 317.012 962.483, 316.617 951.582, 315.559 948.500 C 314.805 946.300, 313.947 940.299, 313.653 935.165 C 313.315 929.256, 312.555 924.970, 311.583 923.486 C 310.738 922.196, 309.758 919.197, 309.405 916.820 C 309.052 914.444, 308.213 911.600, 307.540 910.500 C 306.867 909.400, 305.992 907.186, 305.596 905.579 C 305.200 903.972, 304.004 901.549, 302.938 900.194 C 301.872 898.839, 301 896.886, 301 895.855 C 301 894.823, 299.425 891.739, 297.500 889 C 295.575 886.261, 294 883.632, 294 883.156 C 294 882.681, 292.988 881.119, 291.750 879.685 C 290.512 878.251, 288.600 875.869, 287.500 874.390 C 283.524 869.046, 268.647 854, 267.339 854 C 266.603 854, 266 853.594, 266 853.099 C 266 852.266, 261.903 849.346, 256.314 846.195 C 252.861 844.249, 253.106 839.290, 256.723 837.915 C 258.221 837.346, 260.133 836.236, 260.973 835.449 C 261.813 834.662, 265.930 831.355, 270.122 828.099 C 274.314 824.843, 279.876 819.551, 282.483 816.340 C 285.089 813.128, 287.621 810.350, 288.111 810.167 C 288.600 809.983, 289 809.200, 289 808.425 C 289 807.651, 289.900 806.455, 291 805.768 C 292.100 805.081, 293 803.984, 293 803.331 C 293 802.677, 293.582 801.548, 294.293 800.821 C 296.119 798.956, 301 789.995, 301 788.509 C 301 787.827, 301.878 786.153, 302.952 784.788 C 305.318 781.781, 307.808 775.250, 309.163 768.500 C 309.716 765.750, 310.795 762.800, 311.563 761.944 C 312.416 760.993, 313.193 756.913, 313.562 751.444 C 313.894 746.525, 314.668 741.150, 315.281 739.500 C 316.001 737.562, 316.619 720.740, 317.024 692 C 317.563 653.830, 317.890 646.878, 319.326 643.124 C 320.247 640.718, 321 636.166, 321 633.009 C 321 628.931, 321.539 626.579, 322.862 624.885 C 323.887 623.573, 325.057 621.441, 325.463 620.147 C 328.126 611.652, 340.235 601.052, 347.316 601.018 C 349.414 601.008, 352.114 600.453, 353.316 599.784 C 354.673 599.029, 362.128 598.361, 373 598.020 C 382.625 597.719, 391.063 597.114, 391.750 596.677 C 392.712 596.065, 393 587.615, 393 560 C 393 532.393, 392.712 523.931, 391.750 523.309 C 390.270 522.351, 333.876 522.007, 322.898 522.889 M 1086 522.828 L 1083.500 523.590 1083.237 559.482 C 1083.059 583.757, 1083.317 595.717, 1084.034 596.434 C 1084.656 597.056, 1092.405 597.715, 1102.797 598.031 C 1113.851 598.366, 1121.320 599.025, 1122.684 599.784 C 1123.886 600.453, 1126.586 601.008, 1128.684 601.018 C 1135.765 601.052, 1147.874 611.652, 1150.537 620.147 C 1150.943 621.441, 1152.113 623.573, 1153.138 624.885 C 1154.461 626.579, 1155 628.931, 1155 633.009 C 1155 636.166, 1155.753 640.718, 1156.674 643.124 C 1158.110 646.878, 1158.437 653.830, 1158.976 692 C 1159.381 720.740, 1159.999 737.562, 1160.719 739.500 C 1161.332 741.150, 1162.106 746.525, 1162.438 751.444 C 1162.807 756.913, 1163.584 760.993, 1164.437 761.944 C 1165.205 762.800, 1166.284 765.750, 1166.837 768.500 C 1168.192 775.250, 1170.682 781.781, 1173.048 784.788 C 1174.122 786.153, 1175 787.827, 1175 788.509 C 1175 789.995, 1179.881 798.956, 1181.707 800.821 C 1182.418 801.548, 1183 802.677, 1183 803.331 C 1183 803.984, 1183.900 805.081, 1185 805.768 C 1186.100 806.455, 1187 807.651, 1187 808.425 C 1187 809.200, 1187.400 809.983, 1187.889 810.167 C 1188.379 810.350, 1190.911 813.128, 1193.517 816.340 C 1196.124 819.551, 1201.686 824.843, 1205.878 828.099 C 1210.070 831.355, 1214.187 834.662, 1215.027 835.449 C 1215.867 836.236, 1217.779 837.346, 1219.277 837.915 C 1222.894 839.290, 1223.139 844.249, 1219.686 846.195 C 1214.097 849.346, 1210 852.266, 1210 853.099 C 1210 853.594, 1209.397 854, 1208.661 854 C 1207.353 854, 1192.476 869.046, 1188.500 874.390 C 1187.400 875.869, 1185.487 878.251, 1184.250 879.685 C 1183.013 881.119, 1182 882.681, 1182 883.156 C 1182 883.632, 1180.425 886.261, 1178.500 889 C 1176.575 891.739, 1175 894.823, 1175 895.855 C 1175 896.886, 1174.128 898.839, 1173.062 900.194 C 1171.996 901.549, 1170.800 903.972, 1170.404 905.579 C 1170.008 907.186, 1169.133 909.400, 1168.460 910.500 C 1167.787 911.600, 1166.948 914.444, 1166.595 916.820 C 1166.242 919.197, 1165.262 922.196, 1164.417 923.486 C 1163.445 924.970, 1162.685 929.256, 1162.347 935.165 C 1162.053 940.299, 1161.195 946.300, 1160.441 948.500 C 1159.383 951.582, 1158.988 962.483, 1158.718 996 C 1158.454 1028.911, 1158.051 1040.230, 1157.065 1042.500 C 1156.348 1044.150, 1155.396 1049.290, 1154.950 1053.921 C 1154.374 1059.906, 1153.685 1062.597, 1152.570 1063.221 C 1151.706 1063.704, 1151 1064.685, 1151 1065.401 C 1151 1067.606, 1145.974 1076.292, 1143.164 1078.944 C 1137.777 1084.028, 1133.505 1086.276, 1128.001 1086.925 C 1124.974 1087.282, 1121.823 1088.008, 1120.999 1088.537 C 1120.175 1089.067, 1111.850 1089.728, 1102.500 1090.007 C 1093.150 1090.286, 1084.938 1090.875, 1084.250 1091.316 C 1083.288 1091.933, 1083 1100.407, 1083 1128.090 C 1083 1161.409, 1083.129 1164.116, 1084.750 1164.781 C 1085.713 1165.177, 1102.736 1165.489, 1122.580 1165.477 C 1154.432 1165.456, 1158.955 1165.259, 1161.184 1163.799 C 1162.572 1162.890, 1165.461 1161.829, 1167.604 1161.442 C 1169.747 1161.056, 1172.068 1160.288, 1172.762 1159.737 C 1173.974 1158.775, 1177.715 1156.609, 1182.986 1153.817 C 1186.413 1152.002, 1188.258 1150.443, 1195.352 1143.371 C 1203.174 1135.574, 1212.400 1122.369, 1213.622 1117.224 C 1213.978 1115.726, 1214.848 1113.825, 1215.556 1113 C 1216.265 1112.175, 1217.165 1110.150, 1217.556 1108.500 C 1217.948 1106.850, 1218.823 1104.825, 1219.500 1104 C 1220.178 1103.175, 1221.019 1099.606, 1221.370 1096.069 C 1221.720 1092.532, 1222.637 1088.676, 1223.408 1087.501 C 1224.178 1086.325, 1225.319 1081.159, 1225.944 1076.022 C 1226.569 1070.884, 1227.399 1066.189, 1227.790 1065.590 C 1228.180 1064.990, 1228.725 1038.625, 1229 1007 C 1229.442 956.153, 1229.690 949.153, 1231.144 946.500 C 1232.047 944.850, 1233.123 939.900, 1233.534 935.500 C 1233.945 931.100, 1234.843 926.600, 1235.529 925.500 C 1236.214 924.400, 1237.063 921.858, 1237.414 919.850 C 1237.766 917.843, 1238.662 915.696, 1239.406 915.078 C 1240.150 914.460, 1241.033 912.585, 1241.368 910.910 C 1242.631 904.596, 1255.159 891.621, 1262.019 889.522 C 1263.384 889.105, 1265.241 888.114, 1266.147 887.320 C 1267.052 886.527, 1270.427 885.496, 1273.647 885.031 C 1276.866 884.565, 1280.767 883.693, 1282.315 883.092 C 1283.863 882.491, 1289.572 882, 1295 882 C 1300.428 882, 1306.024 881.561, 1307.435 881.025 L 1310 880.050 1310 842 L 1310 803.950 1307.435 802.975 C 1306.024 802.439, 1300.426 802, 1294.994 802 C 1289.489 802, 1284.845 801.557, 1284.500 801 C 1284.160 800.450, 1280.415 800, 1276.178 800 C 1269.205 800, 1268.381 799.791, 1267.487 797.798 C 1266.900 796.489, 1265.081 795.239, 1263 794.713 C 1261.075 794.227, 1258.790 793.193, 1257.921 792.415 C 1257.053 791.637, 1255.897 791, 1255.352 791 C 1254.807 791, 1252.368 788.698, 1249.931 785.884 C 1247.494 783.069, 1244.758 779.965, 1243.852 778.985 C 1242.945 778.005, 1241.874 775.695, 1241.472 773.852 C 1241.069 772.008, 1239.898 769.427, 1238.870 768.115 C 1237.841 766.803, 1237 764.869, 1237 763.815 C 1237 762.762, 1236.377 760.686, 1235.616 759.200 C 1234.855 757.715, 1233.903 753.125, 1233.500 749 C 1233.097 744.875, 1232.032 740.150, 1231.134 738.500 C 1229.694 735.856, 1229.441 728.728, 1229 678.500 C 1228.725 647.150, 1228.191 621.027, 1227.814 620.448 C 1227.436 619.870, 1226.606 615.370, 1225.969 610.448 C 1225.332 605.527, 1224.142 600.447, 1223.324 599.161 C 1222.506 597.874, 1221.581 594.274, 1221.268 591.161 C 1220.954 588.047, 1219.866 583.932, 1218.849 582.015 C 1217.832 580.098, 1217 577.791, 1217 576.887 C 1217 575.984, 1216.379 574.730, 1215.621 574.100 C 1214.862 573.470, 1213.982 571.658, 1213.665 570.073 C 1213.161 567.554, 1207.427 558.213, 1203 552.701 C 1201.098 550.333, 1188.998 538.217, 1186.986 536.667 C 1186.154 536.025, 1184.241 534.947, 1182.736 534.271 C 1181.231 533.596, 1180 532.632, 1180 532.130 C 1180 531.628, 1178.763 530.908, 1177.250 530.530 C 1175.737 530.153, 1173.825 529.261, 1173 528.549 C 1172.175 527.836, 1169.747 526.939, 1167.604 526.554 C 1165.461 526.169, 1162.603 525.131, 1161.252 524.246 C 1159.136 522.859, 1153.942 522.597, 1123.648 522.352 C 1104.317 522.195, 1087.375 522.410, 1086 522.828 M 348.783 618.683 C 347.799 618.941, 346.817 620.493, 346.483 622.317 C 345.594 627.170, 346.382 699.718, 347.333 700.668 C 347.792 701.125, 375.692 701.595, 409.333 701.712 L 470.500 701.924 470.742 871.120 C 470.874 964.178, 471.249 1040.583, 471.574 1040.908 C 472.506 1041.841, 572.138 1042.148, 576.548 1041.232 L 580.500 1040.411 581 871.143 L 581.500 701.876 640 701.965 C 672.175 702.014, 699.962 701.761, 701.750 701.402 L 705 700.750 705 660 L 705 619.250 701.875 618.625 C 698.361 617.922, 351.463 617.979, 348.783 618.683 M 748.500 619 C 747.353 619.493, 769.754 619.847, 801 619.830 C 830.975 619.814, 854.375 619.440, 853 619 C 849.616 617.916, 751.022 617.916, 748.500 619 M 998.500 618.865 L 995.500 619.520 995.490 693.510 L 995.481 767.500 995.747 693.741 L 996.013 619.983 1049.756 620.241 L 1103.500 620.500 1103.752 830.274 L 1104.005 1040.047 1050.252 1039.774 L 996.500 1039.500 995.992 947.500 L 995.484 855.500 995.242 947.781 C 995.014 1034.859, 995.099 1040.103, 996.750 1040.781 C 998.840 1041.640, 1103.571 1041.762, 1104.426 1040.907 C 1105.201 1040.133, 1105.201 619.868, 1104.427 619.093 C 1103.608 618.273, 1002.212 618.055, 998.500 618.865 M 348.239 659.750 L 348.500 699.500 410.247 699.758 L 471.994 700.015 472.247 869.758 L 472.500 1039.500 526.250 1039.774 L 580 1040.047 580 870.024 L 580 700 642 700 L 704 700 704 660 L 704 620 525.989 620 L 347.977 620 348.239 659.750 M 856.474 694 C 856.474 733.875, 856.598 750.188, 856.750 730.250 C 856.901 710.313, 856.901 677.688, 856.750 657.750 C 856.598 637.813, 856.474 654.125, 856.474 694 M 994.804 769.529 C 994.513 769.820, 963.163 770.057, 925.138 770.056 C 880.983 770.055, 856 770.405, 856 771.027 C 856 771.648, 881.288 772, 926 772 C 987.556 772, 996 771.819, 996 770.500 C 996 768.919, 995.677 768.656, 994.804 769.529 M 856 852.973 C 856 853.595, 880.952 853.945, 925.048 853.944 C 963.025 853.943, 994.525 854.206, 995.048 854.530 C 995.572 854.853, 996 854.416, 996 853.559 C 996 852.162, 988.733 852, 926 852 C 881.288 852, 856 852.352, 856 852.973 M 856.479 948 C 856.479 997.775, 856.601 1018.138, 856.750 993.250 C 856.899 968.363, 856.899 927.638, 856.750 902.750 C 856.601 877.863, 856.479 898.225, 856.479 948 M 747.099 1040.500 C 748.410 1041.812, 847.792 1042.403, 852.257 1041.126 C 854.383 1040.517, 836.666 1040.078, 800.800 1039.849 C 764.333 1039.616, 746.432 1039.833, 747.099 1040.500" stroke="none" fill="#972cf0" fill-rule="evenodd"/><path d="M 348.239 659.750 L 348.500 699.500 410.247 699.758 L 471.994 700.015 472.247 869.758 L 472.500 1039.500 526.250 1039.774 L 580 1040.047 580 870.024 L 580 700 642 700 L 704 700 704 660 L 704 620 525.989 620 L 347.977 620 348.239 659.750 M 746.248 829.750 L 746.500 1039.500 801.260 1039.759 L 856.020 1040.017 856 947.759 C 855.989 897.016, 855.984 854.712, 855.990 853.750 C 855.999 852.100, 860.004 852, 925.995 852 L 995.990 852 996.245 945.750 L 996.500 1039.500 1050.252 1039.774 L 1104.005 1040.047 1103.752 830.274 L 1103.500 620.500 1049.750 620.241 L 996 619.983 996 695.991 L 996 772 926 772 C 860.005 772, 855.999 771.900, 855.988 770.250 C 855.981 769.288, 855.986 735.087, 856 694.250 L 856.025 620 801.010 620 L 745.995 620 746.248 829.750" stroke="none" fill="#fbfbfb" fill-rule="evenodd"/></svg>