<?xml version="1.0" encoding="UTF-8"?>
<svg xmlns="http://www.w3.org/2000/svg" xmlns:xlink="http://www.w3.org/1999/xlink" width="35px" height="35px" viewBox="0 0 35 35" version="1.1">
<g id="surface1">
<path style=" stroke:none;fill-rule:evenodd;fill:rgb(59.215686%,17.254902%,94.117647%);fill-opacity:1;" d="M 7.0625 11.4375 C 6.972656 11.445312 6.882812 11.464844 6.867188 11.476562 C 6.851562 11.492188 6.796875 11.507812 6.75 11.519531 C 6.699219 11.527344 6.644531 11.546875 6.628906 11.5625 C 6.609375 11.578125 6.566406 11.597656 6.535156 11.605469 C 6.503906 11.613281 6.476562 11.628906 6.476562 11.640625 C 6.476562 11.652344 6.449219 11.671875 6.414062 11.6875 C 6.382812 11.703125 6.335938 11.730469 6.316406 11.746094 C 6.261719 11.789062 5.996094 12.054688 5.964844 12.097656 C 5.859375 12.238281 5.75 12.417969 5.738281 12.46875 C 5.730469 12.503906 5.710938 12.542969 5.695312 12.558594 C 5.679688 12.570312 5.664062 12.601562 5.664062 12.621094 C 5.664062 12.640625 5.648438 12.691406 5.625 12.730469 C 5.601562 12.773438 5.578125 12.863281 5.570312 12.933594 C 5.566406 13 5.546875 13.078125 5.527344 13.105469 C 5.507812 13.136719 5.484375 13.246094 5.46875 13.355469 C 5.457031 13.460938 5.4375 13.558594 5.429688 13.574219 C 5.421875 13.585938 5.410156 14.15625 5.402344 14.84375 C 5.394531 15.941406 5.386719 16.097656 5.355469 16.15625 C 5.335938 16.191406 5.3125 16.292969 5.304688 16.382812 C 5.296875 16.476562 5.273438 16.574219 5.257812 16.609375 C 5.242188 16.640625 5.226562 16.683594 5.226562 16.707031 C 5.226562 16.730469 5.210938 16.773438 5.1875 16.800781 C 5.164062 16.832031 5.140625 16.886719 5.128906 16.929688 C 5.121094 16.96875 5.097656 17.019531 5.078125 17.039062 C 5.058594 17.0625 5 17.128906 4.945312 17.191406 C 4.890625 17.253906 4.839844 17.304688 4.828125 17.304688 C 4.816406 17.304688 4.789062 17.316406 4.769531 17.335938 C 4.75 17.351562 4.703125 17.375 4.660156 17.382812 C 4.613281 17.394531 4.574219 17.421875 4.5625 17.453125 C 4.542969 17.496094 4.523438 17.5 4.371094 17.5 C 4.277344 17.5 4.195312 17.511719 4.1875 17.523438 C 4.179688 17.535156 4.078125 17.542969 3.960938 17.542969 C 3.839844 17.542969 3.71875 17.554688 3.6875 17.566406 L 3.632812 17.585938 L 3.632812 19.25 L 3.6875 19.273438 C 3.71875 19.285156 3.839844 19.292969 3.960938 19.292969 C 4.078125 19.292969 4.203125 19.304688 4.238281 19.316406 C 4.269531 19.332031 4.355469 19.351562 4.425781 19.359375 C 4.496094 19.371094 4.570312 19.394531 4.589844 19.410156 C 4.609375 19.425781 4.652344 19.449219 4.679688 19.457031 C 4.832031 19.503906 5.105469 19.789062 5.132812 19.925781 C 5.140625 19.960938 5.160156 20.003906 5.175781 20.015625 C 5.191406 20.03125 5.210938 20.078125 5.21875 20.121094 C 5.226562 20.164062 5.246094 20.222656 5.261719 20.246094 C 5.273438 20.269531 5.296875 20.367188 5.304688 20.464844 C 5.3125 20.558594 5.335938 20.667969 5.355469 20.703125 C 5.386719 20.761719 5.394531 20.914062 5.402344 22.027344 C 5.410156 22.71875 5.421875 23.296875 5.429688 23.308594 C 5.4375 23.324219 5.457031 23.425781 5.46875 23.539062 C 5.484375 23.648438 5.507812 23.761719 5.527344 23.789062 C 5.542969 23.816406 5.5625 23.898438 5.570312 23.976562 C 5.578125 24.054688 5.597656 24.132812 5.609375 24.148438 C 5.625 24.167969 5.644531 24.210938 5.652344 24.25 C 5.660156 24.285156 5.683594 24.328125 5.695312 24.347656 C 5.710938 24.363281 5.730469 24.40625 5.738281 24.4375 C 5.765625 24.550781 5.96875 24.839844 6.140625 25.011719 C 6.292969 25.164062 6.335938 25.199219 6.410156 25.238281 C 6.523438 25.300781 6.605469 25.347656 6.632812 25.371094 C 6.648438 25.382812 6.699219 25.398438 6.746094 25.40625 C 6.792969 25.414062 6.855469 25.4375 6.886719 25.457031 C 6.933594 25.488281 7.035156 25.496094 7.730469 25.496094 C 8.164062 25.496094 8.539062 25.488281 8.558594 25.480469 C 8.59375 25.464844 8.597656 25.40625 8.597656 24.675781 C 8.597656 24.070312 8.589844 23.886719 8.570312 23.871094 C 8.554688 23.863281 8.375 23.851562 8.171875 23.84375 C 7.964844 23.835938 7.785156 23.824219 7.765625 23.8125 C 7.746094 23.800781 7.679688 23.785156 7.613281 23.777344 C 7.492188 23.761719 7.398438 23.714844 7.28125 23.601562 C 7.21875 23.542969 7.109375 23.355469 7.109375 23.304688 C 7.109375 23.289062 7.09375 23.269531 7.074219 23.257812 C 7.050781 23.246094 7.035156 23.183594 7.023438 23.054688 C 7.011719 22.953125 6.992188 22.839844 6.976562 22.804688 C 6.957031 22.753906 6.945312 22.507812 6.941406 21.789062 C 6.933594 21.054688 6.925781 20.816406 6.902344 20.75 C 6.886719 20.699219 6.867188 20.570312 6.859375 20.457031 C 6.855469 20.328125 6.835938 20.234375 6.816406 20.203125 C 6.796875 20.171875 6.777344 20.109375 6.769531 20.054688 C 6.761719 20.003906 6.742188 19.941406 6.726562 19.917969 C 6.710938 19.894531 6.695312 19.84375 6.683594 19.808594 C 6.675781 19.773438 6.648438 19.722656 6.625 19.691406 C 6.601562 19.660156 6.585938 19.621094 6.585938 19.597656 C 6.585938 19.574219 6.550781 19.507812 6.507812 19.445312 C 6.464844 19.386719 6.429688 19.328125 6.429688 19.320312 C 6.429688 19.308594 6.410156 19.273438 6.382812 19.242188 C 6.355469 19.210938 6.3125 19.160156 6.289062 19.128906 C 6.203125 19.011719 5.875 18.679688 5.847656 18.679688 C 5.832031 18.679688 5.820312 18.671875 5.820312 18.660156 C 5.820312 18.644531 5.730469 18.578125 5.605469 18.511719 C 5.53125 18.46875 5.535156 18.359375 5.617188 18.328125 C 5.648438 18.316406 5.691406 18.292969 5.707031 18.277344 C 5.726562 18.257812 5.816406 18.1875 5.910156 18.113281 C 6 18.042969 6.121094 17.925781 6.179688 17.859375 C 6.234375 17.789062 6.292969 17.726562 6.300781 17.722656 C 6.3125 17.71875 6.320312 17.703125 6.320312 17.683594 C 6.320312 17.667969 6.339844 17.640625 6.367188 17.625 C 6.390625 17.609375 6.410156 17.585938 6.410156 17.574219 C 6.410156 17.558594 6.421875 17.535156 6.4375 17.519531 C 6.476562 17.476562 6.585938 17.28125 6.585938 17.25 C 6.585938 17.234375 6.605469 17.195312 6.628906 17.167969 C 6.679688 17.101562 6.734375 16.957031 6.761719 16.8125 C 6.773438 16.75 6.796875 16.6875 6.816406 16.667969 C 6.835938 16.648438 6.851562 16.558594 6.859375 16.4375 C 6.867188 16.332031 6.882812 16.210938 6.898438 16.175781 C 6.914062 16.132812 6.925781 15.765625 6.933594 15.136719 C 6.945312 14.300781 6.953125 14.152344 6.984375 14.066406 C 7.003906 14.015625 7.023438 13.917969 7.023438 13.847656 C 7.023438 13.757812 7.035156 13.707031 7.0625 13.667969 C 7.085938 13.640625 7.109375 13.59375 7.121094 13.566406 C 7.179688 13.378906 7.441406 13.148438 7.597656 13.148438 C 7.644531 13.148438 7.703125 13.136719 7.730469 13.121094 C 7.757812 13.105469 7.921875 13.089844 8.160156 13.082031 C 8.371094 13.074219 8.554688 13.0625 8.570312 13.050781 C 8.589844 13.039062 8.597656 12.855469 8.597656 12.25 C 8.597656 11.644531 8.589844 11.460938 8.570312 11.449219 C 8.539062 11.425781 7.304688 11.417969 7.0625 11.4375 M 23.757812 11.4375 L 23.703125 11.453125 L 23.695312 12.238281 C 23.691406 12.769531 23.699219 13.03125 23.714844 13.046875 C 23.726562 13.0625 23.894531 13.074219 24.125 13.082031 C 24.367188 13.089844 24.527344 13.105469 24.558594 13.121094 C 24.585938 13.136719 24.644531 13.148438 24.691406 13.148438 C 24.84375 13.148438 25.109375 13.378906 25.167969 13.566406 C 25.175781 13.59375 25.203125 13.640625 25.226562 13.667969 C 25.253906 13.707031 25.265625 13.757812 25.265625 13.847656 C 25.265625 13.917969 25.28125 14.015625 25.300781 14.066406 C 25.332031 14.152344 25.339844 14.300781 25.351562 15.136719 C 25.363281 15.765625 25.375 16.132812 25.390625 16.175781 C 25.402344 16.210938 25.421875 16.332031 25.429688 16.4375 C 25.4375 16.558594 25.453125 16.648438 25.472656 16.667969 C 25.488281 16.6875 25.511719 16.75 25.523438 16.8125 C 25.554688 16.957031 25.609375 17.101562 25.660156 17.167969 C 25.683594 17.195312 25.703125 17.234375 25.703125 17.25 C 25.703125 17.28125 25.808594 17.476562 25.851562 17.519531 C 25.867188 17.535156 25.878906 17.558594 25.878906 17.574219 C 25.878906 17.585938 25.898438 17.609375 25.921875 17.625 C 25.945312 17.640625 25.964844 17.667969 25.964844 17.683594 C 25.964844 17.703125 25.972656 17.71875 25.984375 17.722656 C 25.996094 17.726562 26.050781 17.789062 26.109375 17.859375 C 26.164062 17.925781 26.285156 18.042969 26.378906 18.113281 C 26.46875 18.1875 26.558594 18.257812 26.578125 18.277344 C 26.597656 18.292969 26.640625 18.316406 26.671875 18.328125 C 26.75 18.359375 26.757812 18.46875 26.679688 18.511719 C 26.558594 18.578125 26.46875 18.644531 26.46875 18.660156 C 26.46875 18.671875 26.457031 18.679688 26.441406 18.679688 C 26.410156 18.679688 26.085938 19.011719 26 19.128906 C 25.972656 19.160156 25.933594 19.210938 25.90625 19.242188 C 25.878906 19.273438 25.855469 19.308594 25.855469 19.320312 C 25.855469 19.328125 25.820312 19.386719 25.78125 19.445312 C 25.738281 19.507812 25.703125 19.574219 25.703125 19.597656 C 25.703125 19.621094 25.683594 19.660156 25.660156 19.691406 C 25.636719 19.722656 25.609375 19.773438 25.601562 19.808594 C 25.59375 19.84375 25.574219 19.894531 25.558594 19.917969 C 25.546875 19.941406 25.527344 20.003906 25.519531 20.054688 C 25.511719 20.109375 25.488281 20.171875 25.472656 20.203125 C 25.449219 20.234375 25.433594 20.328125 25.425781 20.457031 C 25.417969 20.570312 25.402344 20.699219 25.382812 20.75 C 25.363281 20.816406 25.351562 21.054688 25.347656 21.789062 C 25.339844 22.507812 25.332031 22.753906 25.3125 22.804688 C 25.296875 22.839844 25.273438 22.953125 25.265625 23.054688 C 25.25 23.183594 25.238281 23.246094 25.210938 23.257812 C 25.195312 23.269531 25.179688 23.289062 25.179688 23.304688 C 25.179688 23.355469 25.066406 23.542969 25.007812 23.601562 C 24.890625 23.714844 24.796875 23.761719 24.675781 23.777344 C 24.609375 23.785156 24.539062 23.800781 24.523438 23.8125 C 24.503906 23.824219 24.320312 23.835938 24.117188 23.84375 C 23.914062 23.851562 23.734375 23.863281 23.71875 23.871094 C 23.695312 23.886719 23.691406 24.070312 23.691406 24.675781 C 23.691406 25.40625 23.695312 25.464844 23.730469 25.480469 C 23.75 25.488281 24.121094 25.496094 24.554688 25.496094 C 25.253906 25.496094 25.351562 25.488281 25.402344 25.457031 C 25.429688 25.4375 25.496094 25.414062 25.542969 25.40625 C 25.589844 25.398438 25.640625 25.382812 25.652344 25.371094 C 25.679688 25.347656 25.761719 25.300781 25.878906 25.238281 C 25.953125 25.199219 25.992188 25.164062 26.148438 25.011719 C 26.320312 24.839844 26.519531 24.550781 26.546875 24.4375 C 26.554688 24.40625 26.574219 24.363281 26.589844 24.347656 C 26.605469 24.328125 26.625 24.285156 26.632812 24.25 C 26.644531 24.210938 26.660156 24.167969 26.675781 24.148438 C 26.691406 24.132812 26.710938 24.054688 26.71875 23.976562 C 26.726562 23.898438 26.746094 23.816406 26.761719 23.789062 C 26.777344 23.761719 26.804688 23.648438 26.816406 23.539062 C 26.832031 23.425781 26.847656 23.324219 26.859375 23.308594 C 26.867188 23.296875 26.878906 22.71875 26.882812 22.027344 C 26.894531 20.914062 26.898438 20.761719 26.929688 20.703125 C 26.949219 20.667969 26.972656 20.558594 26.984375 20.464844 C 26.992188 20.367188 27.011719 20.269531 27.027344 20.246094 C 27.042969 20.222656 27.0625 20.164062 27.070312 20.121094 C 27.074219 20.078125 27.097656 20.03125 27.113281 20.015625 C 27.128906 20.003906 27.148438 19.960938 27.15625 19.925781 C 27.183594 19.789062 27.457031 19.503906 27.605469 19.457031 C 27.636719 19.449219 27.675781 19.425781 27.695312 19.410156 C 27.714844 19.394531 27.789062 19.371094 27.859375 19.359375 C 27.929688 19.351562 28.015625 19.332031 28.050781 19.316406 C 28.085938 19.304688 28.210938 19.292969 28.328125 19.292969 C 28.445312 19.292969 28.570312 19.285156 28.601562 19.273438 L 28.65625 19.25 L 28.65625 17.585938 L 28.601562 17.566406 C 28.570312 17.554688 28.445312 17.542969 28.328125 17.542969 C 28.207031 17.542969 28.105469 17.535156 28.097656 17.523438 C 28.089844 17.511719 28.007812 17.5 27.917969 17.5 C 27.765625 17.5 27.746094 17.496094 27.726562 17.453125 C 27.714844 17.421875 27.671875 17.394531 27.628906 17.382812 C 27.585938 17.375 27.535156 17.351562 27.515625 17.335938 C 27.496094 17.316406 27.472656 17.304688 27.460938 17.304688 C 27.449219 17.304688 27.394531 17.253906 27.34375 17.191406 C 27.289062 17.128906 27.230469 17.0625 27.210938 17.039062 C 27.1875 17.019531 27.164062 16.96875 27.15625 16.929688 C 27.148438 16.886719 27.121094 16.832031 27.101562 16.800781 C 27.078125 16.773438 27.058594 16.730469 27.058594 16.707031 C 27.058594 16.683594 27.046875 16.640625 27.027344 16.609375 C 27.011719 16.574219 26.992188 16.476562 26.984375 16.382812 C 26.972656 16.292969 26.949219 16.191406 26.929688 16.15625 C 26.898438 16.097656 26.894531 15.941406 26.882812 14.84375 C 26.878906 14.15625 26.867188 13.585938 26.859375 13.574219 C 26.851562 13.558594 26.832031 13.460938 26.816406 13.355469 C 26.804688 13.246094 26.777344 13.136719 26.761719 13.105469 C 26.742188 13.078125 26.722656 13 26.714844 12.933594 C 26.707031 12.863281 26.683594 12.773438 26.664062 12.730469 C 26.640625 12.691406 26.621094 12.640625 26.621094 12.621094 C 26.621094 12.601562 26.609375 12.570312 26.589844 12.558594 C 26.574219 12.542969 26.554688 12.503906 26.550781 12.46875 C 26.539062 12.414062 26.414062 12.210938 26.316406 12.089844 C 26.273438 12.039062 26.007812 11.773438 25.964844 11.738281 C 25.945312 11.726562 25.90625 11.703125 25.871094 11.6875 C 25.839844 11.671875 25.8125 11.652344 25.8125 11.640625 C 25.8125 11.628906 25.785156 11.613281 25.753906 11.605469 C 25.71875 11.597656 25.675781 11.578125 25.660156 11.5625 C 25.640625 11.546875 25.589844 11.527344 25.542969 11.519531 C 25.496094 11.511719 25.433594 11.488281 25.402344 11.46875 C 25.355469 11.4375 25.242188 11.433594 24.578125 11.425781 C 24.15625 11.421875 23.785156 11.425781 23.757812 11.4375 M 7.628906 13.535156 C 7.609375 13.539062 7.585938 13.574219 7.578125 13.613281 C 7.558594 13.71875 7.578125 15.304688 7.597656 15.328125 C 7.609375 15.335938 8.21875 15.347656 8.953125 15.351562 L 10.292969 15.355469 L 10.296875 19.054688 C 10.300781 21.089844 10.308594 22.761719 10.316406 22.769531 C 10.335938 22.789062 12.515625 22.796875 12.613281 22.777344 L 12.699219 22.757812 L 12.710938 19.054688 L 12.71875 15.355469 L 14 15.355469 C 14.703125 15.355469 15.3125 15.351562 15.351562 15.34375 L 15.421875 15.328125 L 15.421875 13.546875 L 15.351562 13.53125 C 15.277344 13.515625 7.6875 13.519531 7.628906 13.535156 M 16.375 13.539062 C 16.347656 13.550781 16.839844 13.558594 17.523438 13.558594 C 18.175781 13.558594 18.6875 13.550781 18.660156 13.539062 C 18.585938 13.515625 16.429688 13.515625 16.375 13.539062 M 21.84375 13.539062 L 21.777344 13.550781 L 21.777344 16.789062 L 21.78125 15.175781 L 21.789062 13.5625 L 22.964844 13.566406 L 24.140625 13.574219 L 24.144531 18.164062 L 24.148438 22.75 L 22.972656 22.746094 L 21.796875 22.738281 L 21.789062 20.726562 L 21.777344 18.714844 L 21.769531 20.734375 C 21.765625 22.636719 21.769531 22.753906 21.804688 22.765625 C 21.851562 22.785156 24.140625 22.789062 24.160156 22.769531 C 24.175781 22.753906 24.175781 13.558594 24.160156 13.542969 C 24.140625 13.523438 21.921875 13.519531 21.84375 13.539062 M 7.617188 14.433594 L 7.625 15.300781 L 8.972656 15.308594 L 10.324219 15.3125 L 10.332031 19.027344 L 10.335938 22.738281 L 11.511719 22.746094 L 12.6875 22.75 L 12.6875 15.3125 L 15.398438 15.3125 L 15.398438 13.5625 L 7.613281 13.5625 L 7.617188 14.433594 M 18.734375 15.179688 C 18.734375 16.054688 18.738281 16.410156 18.742188 15.972656 C 18.746094 15.539062 18.746094 14.824219 18.742188 14.386719 C 18.738281 13.953125 18.734375 14.308594 18.734375 15.179688 M 21.761719 16.832031 C 21.753906 16.839844 21.070312 16.84375 20.238281 16.84375 C 19.273438 16.84375 18.726562 16.851562 18.726562 16.867188 C 18.726562 16.878906 19.277344 16.886719 20.257812 16.886719 C 21.601562 16.886719 21.789062 16.882812 21.789062 16.855469 C 21.789062 16.820312 21.78125 16.8125 21.761719 16.832031 M 18.726562 18.660156 C 18.726562 18.671875 19.269531 18.679688 20.234375 18.679688 C 21.066406 18.679688 21.753906 18.6875 21.765625 18.691406 C 21.777344 18.699219 21.789062 18.691406 21.789062 18.671875 C 21.789062 18.640625 21.628906 18.636719 20.257812 18.636719 C 19.277344 18.636719 18.726562 18.644531 18.726562 18.660156 M 18.734375 20.738281 C 18.734375 21.828125 18.738281 22.273438 18.742188 21.726562 C 18.746094 21.183594 18.746094 20.292969 18.742188 19.746094 C 18.738281 19.203125 18.734375 19.648438 18.734375 20.738281 M 16.34375 22.761719 C 16.371094 22.789062 18.546875 22.800781 18.644531 22.773438 C 18.691406 22.761719 18.300781 22.75 17.515625 22.746094 C 16.71875 22.742188 16.328125 22.746094 16.34375 22.761719 "/>
<path style=" stroke:none;fill-rule:evenodd;fill:rgb(98.431373%,98.431373%,98.431373%);fill-opacity:1;" d="M 7.617188 14.433594 L 7.625 15.300781 L 8.972656 15.308594 L 10.324219 15.3125 L 10.332031 19.027344 L 10.335938 22.738281 L 11.511719 22.746094 L 12.6875 22.75 L 12.6875 15.3125 L 15.398438 15.3125 L 15.398438 13.5625 L 7.613281 13.5625 L 7.617188 14.433594 M 16.324219 18.152344 L 16.328125 22.738281 L 17.527344 22.746094 L 18.726562 22.75 L 18.726562 20.730469 C 18.726562 19.621094 18.726562 18.695312 18.726562 18.675781 C 18.726562 18.640625 18.8125 18.636719 20.257812 18.636719 L 21.789062 18.636719 L 21.796875 22.738281 L 22.972656 22.746094 L 24.148438 22.75 L 24.144531 18.164062 L 24.140625 13.574219 L 22.964844 13.566406 L 21.789062 13.5625 L 21.789062 16.886719 L 20.257812 16.886719 C 18.8125 16.886719 18.726562 16.886719 18.726562 16.847656 C 18.722656 16.828125 18.726562 16.078125 18.726562 15.1875 L 18.726562 13.5625 L 16.320312 13.5625 L 16.324219 18.152344 "/>
</g>
</svg>
